<?xml version="1.0" encoding="UTF-8"?>
<!DOCTYPE svg PUBLIC "-//W3C//DTD SVG 1.1//EN" "http://www.w3.org/Graphics/SVG/1.1/DTD/svg11.dtd">
<!-- Creator: CorelDRAW 2019 (64-Bit) -->
<svg xmlns="http://www.w3.org/2000/svg" xml:space="preserve" width="189.364mm" height="49.2616mm" version="1.1" style="shape-rendering:geometricPrecision; text-rendering:geometricPrecision; image-rendering:optimizeQuality; fill-rule:evenodd; clip-rule:evenodd"
viewBox="0 0 28418.63 7392.91"
 xmlns:xlink="http://www.w3.org/1999/xlink"
 xmlns:xodm="http://www.corel.com/coreldraw/odm/2003">
 <defs>
  <style type="text/css">
   <![CDATA[
    .fil0 {fill:#FEFEFE}
    .fil1 {fill:#FEFEFE;fill-rule:nonzero}
   ]]>
  </style>
 </defs>
 <g id="Слой_x0020_1">
  <metadata id="CorelCorpID_0Corel-Layer"/>
  <g id="_2991714560">
   <g>
    <path class="fil0" d="M24971.59 345.55c0,128.97 17.36,214.73 119.94,309.89 69.41,64.4 144.94,82.53 255.77,106.64 102.79,22.36 188.52,51.12 280.59,81.79 243.11,80.98 397.77,159.72 619.04,291.19 101.15,60.09 229.42,156.33 318.74,229.07l194.75 176.08c97.29,97.29 168.76,176.07 254.38,285.01 30.45,38.76 50.76,67.38 79.36,106.06 111.09,150.24 189.71,292.19 273.78,459.45 77.66,154.47 153.35,355.86 197.8,535.44 91.28,368.78 94.37,477.91 94.37,849.56 0,144.36 -21.03,306.99 -45.7,443.14 -25.21,139.12 -46.06,273.86 77.08,402 110.47,114.96 196.25,115.65 331.02,115.65 86.49,0 176.76,-65.25 234.33,-128.09 135.46,-147.84 161.8,-712.21 161.8,-925.4 0,-627.16 -153.03,-1223.9 -443.92,-1764.21 -72.46,-134.59 -111.09,-201.84 -198.28,-332.67 -69.41,-104.12 -194.36,-271.77 -274.32,-357.78 -20.14,-21.67 -24.49,-33.11 -46.22,-54.93l-156.08 -164.18c-18.91,-18.92 -31.5,-31.67 -50.44,-50.7 -80.57,-81 -321.76,-274.74 -406.79,-334.86 -251.67,-177.93 -526.7,-328.96 -822.33,-441.88 -176.71,-67.47 -504.4,-181.82 -703.11,-181.82 -173.22,0 -345.55,171.6 -345.55,345.55z"/>
    <path class="fil0" d="M24583.9 1508.61c0,162.11 52.81,271.68 191.98,355.84 53.55,32.39 120.7,39.78 187.44,56.97 66.51,17.12 128.72,38.76 192.71,60.13 27.03,9.02 58.83,20.94 85.12,32.85l171.4 81.46c463.43,259.22 790.07,665.32 938.31,1177.11 69.36,239.53 91.13,529.73 55.02,782.41 -16.45,115.05 -26.82,102.98 -26.82,234.45 0,173.08 172.47,345.55 345.55,345.55 112.2,0 186.54,-11.65 275.76,-86.64 170.98,-143.68 179.35,-535.93 179.35,-773.02 0,-736.66 -319.72,-1360.27 -667.79,-1751.04 -92.76,-104.15 -190.8,-211.38 -301.36,-297.03 -320.95,-248.61 -587.09,-408.73 -996.3,-520.73 -197.06,-53.95 -372.51,-103.72 -531.95,71.41l-59.31 83.95c-19.54,38.01 -39.11,92.97 -39.11,146.32z"/>
    <path class="fil0" d="M24196.21 2688.52c0,169.97 80.18,293.58 210.57,354.1 117.33,54.46 300.91,43.52 520.59,263.22 125.01,125 246.48,348.2 246.48,545.75l0 109.55c0,102.65 -70.32,236.76 37.29,400.97 162.34,247.64 520.92,211.92 642.66,-15.98 142.2,-266.19 71.17,-776.36 -42.98,-1047.23 -98.39,-233.49 -170.12,-319.99 -319.19,-498.32l-96.15 -89.26c-159.95,-134.48 -304.95,-240 -513.34,-312.59 -101.6,-35.4 -206.7,-72.59 -323.53,-72.59 -197.17,0 -362.4,165.22 -362.4,362.4z"/>
   </g>
   <path class="fil1" d="M4060.7 3194.56c260,0 475.41,21.67 646.19,65.01 170.78,43.33 305.88,114.7 405.31,214.11 99.41,99.42 169.51,229.42 210.3,390.01 40.78,160.59 61.17,355.6 61.17,585.02l0 726.48c0,163.15 -35.69,276.59 -107.06,340.31 -71.38,63.72 -180.97,95.6 -328.83,95.6l-3861.86 0 0 183.53c0,239.61 57.36,412.96 172.06,520.01 114.72,107.06 337.76,160.59 669.14,160.59l3188.9 0c91.77,0 137.66,45.89 137.66,137.65l0 642.38c0,91.77 -45.89,137.65 -137.66,137.65l-3295.96 0c-346.67,0 -635.99,-28.03 -867.96,-84.12 -231.97,-56.08 -418.05,-146.58 -558.25,-271.48 -140.2,-124.91 -240.9,-285.49 -302.07,-481.77 -61.19,-196.28 -91.77,-432.08 -91.77,-707.38l0 -1101.2c0,-275.3 30.59,-511.09 91.77,-707.38 61.17,-196.28 161.87,-356.86 302.07,-481.77 140.2,-124.91 326.28,-216.68 558.25,-275.31 231.97,-58.62 521.28,-87.94 867.96,-87.94l2240.66 0zm-2974.79 1735.93l3097.15 0c86.67,0 129.99,-43.33 129.99,-129.99l0 -321.19c0,-158.04 -33.14,-270.19 -99.41,-336.48 -66.27,-66.27 -188.63,-99.41 -367.07,-99.41l-1919.47 0c-331.38,0 -554.42,52.26 -669.14,156.77 -114.7,104.51 -172.06,279.12 -172.06,523.83l0 206.47zm6041.34 -3273.02c112.15,0 168.23,56.08 168.23,168.23l0 5398.97c0,112.15 -56.08,168.23 -168.23,168.23l-749.43 0c-112.17,0 -168.25,-56.08 -168.25,-168.23l0 -5398.97c0,-112.15 56.08,-168.23 168.25,-168.23l749.43 0zm4534.81 1537.09c341.57,0 629.62,29.32 864.14,87.94 234.51,58.63 421.87,150.4 562.07,275.31 140.2,124.91 240.88,285.49 302.05,481.77 61.19,196.28 91.77,432.08 91.77,707.38l0 2034.17c0,122.36 -8.91,223.04 -26.76,302.07 -17.84,79.01 -48.44,141.48 -91.77,187.35 -43.34,45.88 -100.68,77.75 -172.06,95.6 -71.38,17.84 -163.15,26.76 -275.31,26.76l-3640.09 0c-224.32,0 -411.68,-21.67 -562.07,-65 -150.39,-43.34 -271.47,-108.34 -363.24,-195.01 -91.77,-86.67 -156.77,-198.83 -195.01,-336.48 -38.24,-137.65 -57.36,-300.79 -57.36,-489.42l0 -367.07c0,-158.04 19.12,-299.52 57.36,-424.43 38.24,-124.91 103.24,-230.69 195.01,-317.36 91.77,-86.67 212.85,-151.67 363.24,-195.01 150.39,-43.33 337.76,-65 562.07,-65l3112.44 0 0 -145.3c0,-122.36 -12.76,-226.87 -38.24,-313.54 -25.5,-86.67 -68.82,-156.77 -130.01,-210.3 -61.17,-53.53 -145.3,-93.05 -252.35,-118.53 -107.06,-25.5 -244.73,-38.24 -412.96,-38.24l-3196.56 0c-91.76,0 -137.65,-45.88 -137.65,-137.65l0 -642.36c0,-91.77 45.89,-137.66 137.65,-137.66l3303.62 0zm504.72 3357.15c81.58,0 138.92,-19.12 172.06,-57.36 33.14,-38.24 49.72,-105.79 49.72,-202.65l0 -672.96 -2798.9 0c-158.04,0 -268.93,31.86 -332.65,95.6 -63.72,63.72 -95.58,156.77 -95.58,279.12l0 160.59c0,137.65 31.86,238.33 95.58,302.05 63.72,63.74 174.61,95.6 332.65,95.6l2577.12 0zm6071.92 -3357.15c91.77,0 137.65,45.89 137.65,137.66l0 642.36c0,91.77 -45.88,137.65 -137.65,137.65l-2034.17 0c-163.15,0 -298.24,14.02 -405.31,42.07 -107.06,28.03 -192.46,73.91 -256.18,137.65 -63.74,63.72 -108.34,150.39 -133.84,260 -25.48,109.61 -38.24,243.44 -38.24,401.48l0 2271.24c0,112.15 -56.07,168.23 -168.23,168.23l-749.43 0c-117.27,0 -175.89,-56.08 -175.89,-168.23l0 -2477.71c0,-275.3 30.59,-511.09 91.77,-707.38 61.17,-196.28 161.86,-356.86 302.05,-481.77 140.2,-124.91 326.29,-216.68 558.26,-275.31 231.96,-58.62 521.28,-87.94 867.96,-87.94l2141.23 0zm4664.82 0c341.58,0 629.62,29.32 864.14,87.94 234.52,58.63 421.87,150.4 562.07,275.31 140.2,124.91 240.88,285.49 302.07,481.77 61.17,196.28 91.77,432.08 91.77,707.38l0 1101.2c0,275.3 -30.6,511.09 -91.77,707.38 -61.19,196.28 -161.87,356.86 -302.07,481.77 -140.2,124.91 -327.55,215.4 -562.07,271.48 -234.52,56.08 -522.56,84.12 -864.14,84.12l-2164.16 0c-346.69,0 -636,-28.03 -867.97,-84.12 -231.97,-56.08 -418.05,-146.58 -558.25,-271.48 -140.2,-124.91 -240.88,-285.49 -302.07,-481.77 -61.17,-196.28 -91.77,-432.08 -91.77,-707.38l0 -1101.2c0,-275.3 30.6,-511.09 91.77,-707.38 61.19,-196.28 161.87,-356.86 302.07,-481.77 140.2,-124.91 326.28,-216.68 558.25,-275.31 231.97,-58.62 521.28,-87.94 867.97,-87.94l2164.16 0zm-2890.66 2462.42c0,163.15 12.74,298.24 38.24,405.31 25.48,107.06 70.1,192.46 133.82,256.18 63.74,63.74 149.13,109.61 256.19,137.65 107.06,28.05 242.16,42.07 405.31,42.07l1950.04 0c168.25,0 305.9,-14.02 412.96,-42.07 107.06,-28.03 192.46,-73.91 256.18,-137.65 63.74,-63.72 108.34,-149.11 133.84,-256.18 25.48,-107.06 38.22,-242.16 38.22,-405.31l0 -726.5c0,-158.04 -12.74,-290.59 -38.22,-397.65 -25.5,-107.06 -70.1,-193.73 -133.84,-260 -63.72,-66.27 -149.11,-112.17 -256.18,-137.65 -107.06,-25.5 -244.71,-38.24 -412.96,-38.24l-1950.04 0c-163.15,0 -298.24,12.74 -405.31,38.24 -107.06,25.48 -192.46,71.38 -256.19,137.65 -63.72,66.27 -108.34,152.94 -133.82,260 -25.5,107.06 -38.24,239.61 -38.24,397.65l0 726.5z"/>
  </g>
 </g>
</svg>
